<svg xmlns="http://www.w3.org/2000/svg" xmlns:xlink="http://www.w3.org/1999/xlink" width="500" zoomAndPan="magnify" viewBox="0 0 375 374.999991" height="500" preserveAspectRatio="xMidYMid meet" version="1.2"><defs><clipPath id="87498855b8"><path d="M 175.601562 165.769531 L 183.738281 165.769531 L 183.738281 172.90625 L 175.601562 172.90625 Z M 175.601562 165.769531 "/></clipPath><clipPath id="aa22080222"><path d="M 175.925781 166.933594 C 175.265625 168.019531 175.730469 169.074219 176.3125 169.636719 L 179.722656 172.90625 L 183.0625 169.648438 C 183.601562 169.042969 183.8125 168.40625 183.695312 167.691406 C 183.535156 166.707031 182.722656 165.941406 181.722656 165.832031 C 181.105469 165.765625 180.511719 165.941406 180.046875 166.328125 C 179.921875 166.429688 179.8125 166.546875 179.714844 166.671875 C 179.597656 166.527344 179.464844 166.398438 179.308594 166.28125 C 178.777344 165.875 178.097656 165.714844 177.445312 165.839844 C 176.828125 165.960938 176.273438 166.359375 175.925781 166.933594 Z M 175.925781 166.933594 "/></clipPath><clipPath id="0545ca585d"><path d="M 121 95 L 258.769531 95 L 258.769531 251.96875 L 121 251.96875 Z M 121 95 "/></clipPath></defs><g id="2d93e557f3"><g clip-rule="nonzero" clip-path="url(#87498855b8)"><g clip-rule="nonzero" clip-path="url(#aa22080222)"><path style=" stroke:none;fill-rule:nonzero;fill:#fff35a;fill-opacity:1;" d="M 175.601562 165.796875 L 183.738281 165.796875 L 183.738281 172.90625 L 175.601562 172.90625 Z M 175.601562 165.796875 "/></g></g><g clip-rule="nonzero" clip-path="url(#0545ca585d)"><path style=" stroke:none;fill-rule:nonzero;fill:#f68c64;fill-opacity:1;" d="M 156.226562 119.78125 C 149.730469 114.992188 140.695312 114.1875 133.226562 116.96875 C 126.128906 119.757812 122.976562 127.601562 122.027344 134.652344 C 120.136719 149.496094 123.84375 164.449219 129.171875 178.234375 C 136.941406 197.605469 148.492188 215.78125 164.324219 229.570312 C 177 240.515625 192.640625 248.476562 209.363281 250.621094 C 218.941406 251.703125 235.195312 251.972656 237.296875 244.6875 C 238.699219 239.820312 229.527344 229.664062 230.320312 221.253906 C 231.390625 210.234375 237.238281 200.550781 242.3125 190.988281 C 251.710938 174.191406 258.769531 155.328125 258.3125 135.851562 C 257.84375 118.996094 246.414062 103 230.320312 97.679688 C 216.378906 92.976562 199.765625 96.070312 189.308594 106.691406 C 178.941406 116.410156 175.078125 131.078125 175.269531 144.910156 C 170.292969 135.660156 164.902344 126.074219 156.226562 119.78125 Z M 156.226562 119.78125 "/></g></g></svg>