<svg xmlns="http://www.w3.org/2000/svg" xmlns:xlink="http://www.w3.org/1999/xlink" width="500" zoomAndPan="magnify" viewBox="0 0 375 374.999991" height="500" preserveAspectRatio="xMidYMid meet" version="1.2"><defs><clipPath id="1a09b792ea"><path d="M 50.449219 49 L 324 49 L 324 256 L 50.449219 256 Z M 50.449219 49 "/></clipPath><clipPath id="31bb407daf"><path d="M 48 98 L 327 98 L 327 247.914062 L 48 247.914062 Z M 48 98 "/></clipPath><clipPath id="516402412f"><path d="M 234 62.328125 L 265.46875 62.328125 L 265.46875 98.328125 L 234 98.328125 Z M 234 62.328125 "/></clipPath></defs><g id="08ba325145"><g clip-rule="nonzero" clip-path="url(#1a09b792ea)"><path style=" stroke:none;fill-rule:nonzero;fill:#fac264;fill-opacity:1;" d="M 319.035156 120.304688 C 315.699219 112.835938 309.4375 106.519531 301.570312 103.988281 C 292.277344 100.945312 282.070312 102.351562 273.15625 105.972656 C 261.191406 110.75 250.800781 118.78125 241.90625 127.992188 C 238.851562 131.195312 236.125 134.703125 232.980469 137.835938 C 233.824219 124.859375 228.769531 112.1875 221.636719 101.574219 C 214.054688 90.445312 204.019531 81.167969 193.0625 73.421875 C 174.746094 60.488281 153.207031 51.753906 130.78125 49.820312 C 115.878906 48.5625 100.394531 50.015625 86.722656 56.417969 C 75.105469 61.78125 65.28125 70.886719 58.984375 82.027344 C 53.316406 91.929688 50.597656 103.402344 50.65625 114.785156 C 50.570312 129.757812 54.578125 144.507812 60.53125 158.160156 C 68.875 177.203125 81.554688 194.160156 96.644531 208.382812 C 114.207031 224.941406 134.929688 238.316406 157.636719 246.648438 C 183.410156 256.164062 212.3125 258.34375 238.769531 250.28125 C 257.738281 244.605469 274.902344 233.503906 288.390625 219.066406 C 304.707031 201.695312 316.929688 180.054688 321.488281 156.539062 C 323.660156 144.5625 324.066406 131.648438 319.035156 120.304688 Z M 319.035156 120.304688 "/></g><g clip-rule="nonzero" clip-path="url(#31bb407daf)"><path style=" stroke:none;fill-rule:evenodd;fill:#a05212;fill-opacity:1;" d="M 129.300781 103.351562 C 111.421875 92.648438 77.15625 93.988281 54.148438 145.757812 C 47.140625 161.519531 47.625 172.421875 51.269531 179.777344 C 56.339844 190.023438 68.046875 194.097656 78.253906 194.828125 L 78.253906 197.871094 C 78.253906 210.828125 87.070312 221.722656 99.035156 224.890625 C 99.140625 227.316406 99.222656 230.886719 98.839844 234.398438 C 98.65625 236.109375 97.710938 239.457031 97.300781 241.335938 C 96.738281 243.921875 98.378906 246.480469 100.964844 247.046875 C 103.554688 247.609375 106.109375 245.96875 106.675781 243.378906 C 107.144531 241.230469 108.167969 237.390625 108.378906 235.4375 C 108.738281 232.125 108.734375 228.378906 108.660156 225.710938 C 115.171875 225.136719 121.308594 222.289062 125.964844 217.632812 C 127.234375 216.367188 128.367188 214.988281 129.355469 213.527344 C 130.34375 214.988281 131.476562 216.367188 132.742188 217.632812 C 137.40625 222.292969 143.539062 225.136719 150.054688 225.710938 C 149.699219 231.664062 151.199219 235.191406 151.984375 238.085938 C 152.675781 240.640625 155.3125 242.15625 157.867188 241.460938 C 160.421875 240.769531 161.9375 238.132812 161.242188 235.578125 C 160.597656 233.195312 159.125 230.257812 159.753906 224.9375 C 159.753906 224.914062 159.757812 224.890625 159.761719 224.867188 C 171.679688 221.675781 180.457031 210.796875 180.457031 197.871094 L 180.457031 194.816406 C 181.808594 194.71875 183.1875 194.558594 184.570312 194.335938 C 190.980469 203.023438 200.761719 210.269531 212.65625 215.0625 C 212.761719 217.488281 212.847656 221.074219 212.464844 224.597656 C 212.277344 226.308594 211.332031 229.65625 210.925781 231.535156 C 210.359375 234.121094 212.003906 236.679688 214.589844 237.246094 C 217.175781 237.808594 219.734375 236.164062 220.296875 233.578125 C 220.765625 231.429688 221.789062 227.589844 222 225.636719 C 222.265625 223.21875 222.335938 220.570312 222.324219 218.277344 C 229.71875 220.253906 237.707031 221.339844 246.042969 221.339844 C 252.144531 221.339844 258.0625 220.757812 263.695312 219.675781 C 263.976562 223.460938 265.003906 226.0625 265.605469 228.285156 C 266.296875 230.839844 268.9375 232.351562 271.492188 231.660156 C 274.046875 230.96875 275.558594 228.332031 274.867188 225.777344 C 274.3125 223.734375 273.152344 221.289062 273.226562 217.28125 C 284.78125 213.675781 294.726562 207.859375 302.070312 200.605469 C 305.171875 197.542969 307.816406 194.226562 309.945312 190.710938 C 313.09375 192.847656 315.140625 195.3125 315.140625 195.3125 C 316.835938 197.347656 319.863281 197.621094 321.898438 195.925781 C 323.933594 194.230469 324.207031 191.203125 322.511719 189.171875 C 322.511719 189.171875 319.109375 185.101562 314.023438 181.949219 C 314.496094 180.535156 314.890625 179.101562 315.203125 177.648438 C 318.03125 178.472656 319.664062 179.394531 319.664062 179.394531 C 321.957031 180.722656 324.894531 179.941406 326.222656 177.652344 C 327.550781 175.359375 326.769531 172.421875 324.480469 171.09375 C 324.480469 171.09375 321.335938 169.234375 316.070312 167.953125 C 315.992188 165.644531 315.710938 163.371094 315.242188 161.140625 C 316.976562 161.386719 318.023438 161.695312 318.023438 161.695312 C 320.566406 162.4375 323.230469 160.976562 323.972656 158.433594 C 324.714844 155.890625 323.253906 153.226562 320.710938 152.484375 C 320.710938 152.484375 317.078125 151.429688 311.828125 151.320312 C 310.277344 148.179688 308.332031 145.175781 306.023438 142.339844 L 306.089844 141.355469 C 306.089844 141.355469 305.957031 121.742188 297.648438 109.875 C 296.371094 108.050781 294.007812 107.34375 291.9375 108.171875 C 291.9375 108.171875 282.671875 111.773438 276.082031 122.257812 C 267.003906 119.0625 256.808594 117.261719 246.042969 117.261719 C 240.351562 117.261719 234.824219 117.765625 229.535156 118.710938 C 229.488281 118.71875 229.441406 118.726562 229.398438 118.734375 C 225.097656 119.511719 220.960938 120.578125 217.023438 121.902344 C 210.453125 111.691406 201.394531 108.171875 201.394531 108.171875 C 199.328125 107.34375 196.960938 108.050781 195.683594 109.875 C 193.28125 113.304688 191.542969 117.371094 190.296875 121.429688 C 169.003906 93.914062 143.78125 94.683594 129.300781 103.351562 Z M 134.492188 201.394531 C 135.1875 204.949219 136.929688 208.25 139.527344 210.847656 C 142.96875 214.289062 147.640625 216.222656 152.507812 216.222656 C 162.644531 216.222656 170.863281 208.007812 170.863281 197.871094 L 170.863281 190.152344 C 170.863281 177.085938 162.035156 171.46875 162.035156 171.46875 C 159.769531 170.097656 159.046875 167.148438 160.417969 164.882812 C 161.789062 162.617188 164.742188 161.890625 167.007812 163.265625 C 167.007812 163.265625 178.125 169.777344 180.144531 185.246094 C 187.214844 184.753906 195.292969 182.46875 198.734375 175.519531 C 201.515625 169.910156 201.03125 161.679688 195.6875 149.65625 C 175.433594 104.082031 146.316406 102.429688 132.246094 112.90625 C 130.582031 114.203125 128.191406 114.28125 126.421875 112.957031 C 112.378906 102.421875 83.203125 104.007812 62.914062 149.65625 C 57.570312 161.679688 57.085938 169.910156 59.867188 175.519531 C 63.324219 182.507812 71.472656 184.777344 78.570312 185.253906 C 80.230469 172.496094 87.808594 164.15625 87.808594 164.15625 C 89.582031 162.1875 92.617188 162.03125 94.582031 163.804688 C 96.550781 165.578125 96.707031 168.613281 94.933594 170.578125 C 94.933594 170.578125 87.847656 178.519531 87.847656 190.152344 C 87.847656 190.152344 87.847656 197.871094 87.847656 197.871094 C 87.847656 208.007812 96.066406 216.222656 106.203125 216.222656 C 111.070312 216.222656 115.738281 214.289062 119.179688 210.847656 C 121.78125 208.25 123.519531 204.949219 124.214844 201.394531 L 117.996094 193.929688 C 116.433594 192.054688 116.09375 189.4375 117.132812 187.226562 C 118.167969 185.011719 120.390625 183.597656 122.835938 183.597656 C 127.039062 183.597656 131.671875 183.597656 135.875 183.597656 C 138.316406 183.597656 140.542969 185.011719 141.578125 187.226562 C 142.617188 189.4375 142.277344 192.054688 140.710938 193.929688 Z M 301.492188 152.464844 C 300.335938 150.601562 298.992188 148.8125 297.488281 147.105469 C 296.628906 146.128906 296.199219 144.847656 296.304688 143.550781 C 296.304688 143.550781 296.492188 141.167969 296.492188 141.140625 C 296.480469 139.449219 296.242188 128.074219 291.96875 119.148438 C 289.175781 121.121094 285.300781 124.648438 282.585938 130.296875 C 281.484375 132.589844 278.785156 133.625 276.433594 132.65625 C 273.859375 131.59375 271.164062 130.664062 268.375 129.875 C 268.152344 131.214844 267.949219 133.234375 268.097656 135.714844 C 268.257812 138.359375 266.242188 140.632812 263.601562 140.792969 C 260.957031 140.953125 258.683594 138.9375 258.523438 136.296875 C 258.304688 132.699219 258.503906 129.933594 258.894531 127.828125 C 256.960938 127.53125 254.992188 127.300781 252.992188 127.136719 L 253.085938 139.089844 C 253.105469 141.738281 250.972656 143.902344 248.328125 143.925781 C 245.679688 143.945312 243.511719 141.8125 243.492188 139.164062 L 243.398438 126.898438 C 241.046875 126.96875 238.730469 127.136719 236.453125 127.394531 C 236.851562 130.019531 237.070312 133.550781 236.855469 138.261719 C 236.734375 140.910156 234.492188 142.957031 231.847656 142.839844 C 229.199219 142.71875 227.152344 140.472656 227.269531 137.828125 C 227.449219 133.929688 227.214844 131.003906 226.929688 129.042969 C 223.339844 129.890625 219.894531 130.972656 216.628906 132.261719 C 214.308594 133.175781 211.679688 132.164062 210.570312 129.933594 C 207.867188 124.503906 204.105469 121.085938 201.371094 119.152344 C 199.339844 123.449219 198.253906 128.320312 197.636719 132.367188 C 199.992188 136.398438 202.273438 140.851562 204.453125 145.757812 C 211.460938 161.519531 210.976562 172.421875 207.332031 179.777344 C 204.585938 185.328125 199.890625 189.066406 194.542969 191.441406 C 205.316406 203.746094 224.414062 211.742188 246.042969 211.742188 C 266.25 211.742188 284.222656 204.746094 295.328125 193.777344 C 300.457031 188.714844 304.09375 182.800781 305.648438 176.375 C 303.53125 176.410156 301.238281 176.65625 298.8125 177.214844 C 296.230469 177.808594 293.65625 176.199219 293.058594 173.617188 C 292.464844 171.039062 294.078125 168.460938 296.65625 167.867188 C 300.128906 167.066406 303.398438 166.757812 306.390625 166.773438 C 306.234375 164.933594 305.910156 163.125 305.425781 161.359375 C 302.867188 161.867188 300.160156 162.800781 297.554688 164.414062 C 295.304688 165.808594 292.34375 165.113281 290.949219 162.859375 C 289.558594 160.609375 290.253906 157.648438 292.503906 156.257812 C 295.46875 154.421875 298.527344 153.222656 301.492188 152.464844 Z M 243.957031 166.753906 L 241.980469 164.808594 C 241.210938 164.050781 241.046875 162.996094 241.554688 162.101562 C 242.0625 161.210938 243.15625 160.640625 244.355469 160.640625 C 246.417969 160.640625 248.691406 160.640625 250.75 160.640625 C 251.953125 160.640625 253.042969 161.210938 253.550781 162.101562 C 254.058594 162.996094 253.894531 164.050781 253.125 164.808594 L 251.152344 166.753906 L 251.152344 171.839844 L 255.84375 180.996094 C 256.75 182.761719 256.050781 184.929688 254.285156 185.835938 C 252.515625 186.742188 250.347656 186.042969 249.441406 184.277344 L 247.28125 180.0625 L 244.617188 184.488281 C 243.59375 186.191406 241.382812 186.742188 239.679688 185.71875 C 237.976562 184.695312 237.425781 182.484375 238.449219 180.78125 L 243.957031 171.628906 Z M 266.105469 153.492188 C 260.945312 153.492188 256.753906 157.679688 256.753906 162.839844 C 256.753906 168.003906 260.945312 172.191406 266.105469 172.191406 C 271.265625 172.191406 275.453125 168.003906 275.453125 162.839844 C 275.453125 157.679688 271.265625 153.492188 266.105469 153.492188 Z M 228.359375 153.492188 C 223.199219 153.492188 219.011719 157.679688 219.011719 162.839844 C 219.011719 168.003906 223.199219 172.191406 228.359375 172.191406 C 233.519531 172.191406 237.710938 168.003906 237.710938 162.839844 C 237.710938 157.679688 233.519531 153.492188 228.359375 153.492188 Z M 266.105469 160.6875 C 267.292969 160.6875 268.257812 161.652344 268.257812 162.839844 C 268.257812 164.03125 267.292969 164.996094 266.105469 164.996094 C 264.914062 164.996094 263.949219 164.03125 263.949219 162.839844 C 263.949219 161.652344 264.914062 160.6875 266.105469 160.6875 Z M 228.359375 160.6875 C 229.550781 160.6875 230.515625 161.652344 230.515625 162.839844 C 230.515625 164.03125 229.550781 164.996094 228.359375 164.996094 C 227.171875 164.996094 226.207031 164.03125 226.207031 162.839844 C 226.207031 161.652344 227.171875 160.6875 228.359375 160.6875 Z M 109.488281 145.640625 C 112.757812 145.640625 115.410156 148.296875 115.410156 151.566406 C 115.410156 154.835938 112.757812 157.488281 109.488281 157.488281 C 106.21875 157.488281 103.5625 154.835938 103.5625 151.566406 C 103.5625 148.296875 106.21875 145.640625 109.488281 145.640625 Z M 147.28125 145.558594 C 150.550781 145.558594 153.203125 148.210938 153.203125 151.480469 C 153.203125 154.75 150.550781 157.40625 147.28125 157.40625 C 144.011719 157.40625 141.355469 154.75 141.355469 151.480469 C 141.355469 148.210938 144.011719 145.558594 147.28125 145.558594 Z M 147.28125 145.558594 "/></g><g clip-rule="nonzero" clip-path="url(#516402412f)"><path style=" stroke:none;fill-rule:nonzero;fill:#f68c64;fill-opacity:1;" d="M 257.199219 68.398438 C 258.671875 67.3125 260.714844 67.132812 262.40625 67.761719 C 264.011719 68.394531 264.726562 70.167969 264.941406 71.765625 C 265.371094 75.125 264.53125 78.511719 263.324219 81.632812 C 261.566406 86.019531 258.949219 90.132812 255.367188 93.257812 C 252.496094 95.734375 248.953125 97.539062 245.167969 98.023438 C 243 98.269531 239.320312 98.328125 238.84375 96.679688 C 238.527344 95.578125 240.601562 93.277344 240.421875 91.375 C 240.179688 88.878906 238.855469 86.6875 237.707031 84.519531 C 235.582031 80.71875 233.980469 76.445312 234.085938 72.039062 C 234.191406 68.222656 236.777344 64.597656 240.421875 63.394531 C 243.578125 62.328125 247.339844 63.03125 249.707031 65.433594 C 252.054688 67.636719 252.929688 70.957031 252.886719 74.089844 C 254.015625 71.992188 255.234375 69.824219 257.199219 68.398438 Z M 257.199219 68.398438 "/></g></g></svg>